<svg xmlns="http://www.w3.org/2000/svg" width="512" height="512"><path d="M13.474 296.422C6.063 296.422 0 302.484 0 309.895c0 7.412 6.063 13.477 13.474 13.477 7.411 0 13.474-6.063 13.474-13.477-.001-7.411-6.064-13.473-13.474-13.473zm0-107.791C6.063 188.631 0 194.694 0 202.105s6.063 13.474 13.474 13.474c7.411 0 13.474-6.063 13.474-13.474-.001-7.411-6.064-13.474-13.474-13.474zm188.631 296.422c-7.411 0-13.474 6.063-13.474 13.477s6.063 13.474 13.474 13.474 13.474-6.063 13.474-13.474-6.062-13.477-13.474-13.477zM94.316 67.368c-14.821 0-26.947 12.126-26.947 26.947s12.125 26.948 26.947 26.948 26.947-12.126 26.947-26.947c0-14.82-12.126-26.948-26.947-26.948zm0 107.79c-14.821 0-26.947 12.126-26.947 26.947 0 14.82 12.126 26.947 26.947 26.947 14.82 0 26.947-12.126 26.947-26.947s-12.126-26.947-26.947-26.947zm0 107.789c-14.821 0-26.947 12.127-26.947 26.947 0 14.818 12.126 26.945 26.947 26.945 14.82 0 26.947-12.125 26.947-26.945s-12.126-26.947-26.947-26.947zm404.211-67.367c7.411 0 13.474-6.063 13.474-13.474s-6.063-13.474-13.474-13.474-13.477 6.063-13.477 13.474 6.066 13.474 13.477 13.474zM309.895 26.947c7.411 0 13.477-6.063 13.477-13.474C323.37 6.063 317.307 0 309.895 0S296.42 6.063 296.42 13.474c.002 7.41 6.064 13.473 13.475 13.473zm-107.79 94.316c14.821 0 26.947-12.126 26.947-26.947s-12.126-26.947-26.947-26.947-26.947 12.126-26.947 26.947 12.127 26.947 26.947 26.947zm0-94.316c7.411 0 13.474-6.063 13.474-13.474C215.58 6.063 209.517 0 202.105 0s-13.474 6.063-13.474 13.474c0 7.41 6.063 13.473 13.474 13.473zm107.79 94.316c14.82 0 26.947-12.126 26.947-26.947s-12.127-26.947-26.947-26.947c-14.818 0-26.945 12.126-26.945 26.947-.003 14.821 12.124 26.947 26.945 26.947zM94.316 390.736c-14.821 0-26.947 12.127-26.947 26.945 0 14.82 12.126 26.947 26.947 26.947 14.82 0 26.947-12.125 26.947-26.946 0-14.819-12.126-26.946-26.947-26.946zm215.579-229.051c-22.367 0-40.42 18.054-40.42 40.421s18.053 40.421 40.42 40.421 40.423-18.054 40.423-40.421c-.002-22.367-18.056-40.421-40.423-40.421zm107.79 121.262c-14.818 0-26.944 12.127-26.944 26.947 0 14.818 12.126 26.945 26.944 26.945 14.821 0 26.947-12.127 26.947-26.945 0-14.82-12.126-26.947-26.947-26.947zm0 107.789c-14.818 0-26.944 12.127-26.944 26.945 0 14.82 12.126 26.947 26.944 26.947 14.821.001 26.947-12.125 26.947-26.946 0-14.819-12.126-26.946-26.947-26.946zm0-215.578c-14.818 0-26.944 12.126-26.944 26.947 0 14.82 12.126 26.947 26.944 26.947 14.821 0 26.947-12.126 26.947-26.947s-12.126-26.947-26.947-26.947zm80.842 121.264c-7.411 0-13.477 6.063-13.477 13.475 0 7.41 6.063 13.475 13.477 13.475s13.474-6.063 13.474-13.477c-.001-7.411-6.063-13.473-13.474-13.473zM417.685 67.368c-14.818 0-26.944 12.126-26.944 26.947s12.125 26.948 26.944 26.948c14.821 0 26.947-12.126 26.947-26.947 0-14.82-12.126-26.948-26.947-26.948zm-215.58 202.107c-22.367 0-40.421 18.053-40.421 40.42s18.054 40.422 40.421 40.422 40.421-18.055 40.421-40.422-18.054-40.42-40.421-40.42zm0 121.261c-14.821 0-26.947 12.127-26.947 26.945 0 14.82 12.126 26.947 26.947 26.947s26.947-12.127 26.947-26.947c0-14.818-12.126-26.945-26.947-26.945zm0-229.051c-22.367 0-40.421 18.054-40.421 40.421s18.054 40.421 40.421 40.421 40.421-18.054 40.421-40.421-18.054-40.421-40.421-40.421zm107.79 229.051c-14.818 0-26.945 12.127-26.945 26.945 0 14.822 12.127 26.948 26.945 26.948 14.82 0 26.947-12.126 26.947-26.947.001-14.819-12.125-26.946-26.947-26.946zm0 94.317c-7.41 0-13.475 6.063-13.475 13.477s6.063 13.474 13.475 13.474 13.477-6.063 13.477-13.474-6.066-13.477-13.477-13.477zm0-215.578c-22.367 0-40.42 18.053-40.42 40.42s18.053 40.422 40.42 40.422 40.423-18.055 40.423-40.422-18.056-40.42-40.423-40.42z" fill="#71316A"/></svg>