<?xml version="1.0" encoding="utf-8"?>
<!-- Generator: Adobe Illustrator 16.0.0, SVG Export Plug-In . SVG Version: 6.00 Build 0)  -->
<!DOCTYPE svg PUBLIC "-//W3C//DTD SVG 1.1//EN" "http://www.w3.org/Graphics/SVG/1.1/DTD/svg11.dtd">
<svg version="1.1" id="Layer_1" xmlns="http://www.w3.org/2000/svg" xmlns:xlink="http://www.w3.org/1999/xlink" x="0px" y="0px"
	 width="499px" height="495px" viewBox="-187 -187 499 495" enable-background="new -187 -187 499 495" xml:space="preserve">
<g id="Watsapp">
	<path fill="none" stroke="#FFFFFF" stroke-width="28" stroke-linecap="round" stroke-linejoin="round" stroke-miterlimit="10" d="
		M156.354,186.391c-12.719,3.717-25.508,4.648-33.688,2.358c-16.164-4.521-69.586-18.498-104.428-50.983
		C-16.604,105.27-44.819,71.062-56.363,45.84C-67.907,20.617-67.274,5.654-66.635-1.401c0.639-7.052,4.354-39.737,26.232-53.748
		c0,0,7.297-4.628,11.104-4.628s21.289,0,21.289,0s5.706,0.997,8.329,6.938C2.937-46.888,20.894-4.714,22.226-1.462
		c1.337,3.256,4.812,11.306-0.771,18.518C15.859,24.264,4.172,37.723,4.172,37.723s-4.63,4.169-0.61,10.805
		c4.004,6.631,18.119,28.513,36.557,45.041c18.447,16.539,41.046,28.694,52.311,32.401c11.259,3.703,13.723-1.229,18.047-6.788
		c4.311-5.549,17.746-22.524,17.746-22.524s4.629-6.788,13.725-2.624c9.104,4.165,53.387,25.613,53.387,25.613
		s5.399,0.931,5.704,6.941c0.307,6.015,5.11,48.355-10.175,73.097c-8.729,18.922-56.023,89.492-128.356,89.82
		c-66.788,0.298-125.108-37.56-125.108-37.56l-85.351,27.849l27.698-82.633c0,0-44.244-61.24-44.244-134.665
		c-0.003-125.371,101.63-227,226.997-227c125.368,0,227,101.629,227,226.997c0,61.972-24.835,118.148-65.094,159.112"/>
</g>
</svg>
